<svg xmlns="http://www.w3.org/2000/svg" viewBox="0 0 458.04 60.26"><defs><style>.cls-1{fill:#e7f0fb;}</style></defs><title>2Recurso 2-9</title><g id="Capa_2" data-name="Capa 2"><g id="Capa_1-2" data-name="Capa 1"><path class="cls-1" d="M24,3.74h8.49L56.21,58.86H45L39.86,46.25H16L11,58.86H0Zm12.46,34.1L28,15.42,19.31,37.84Z"/><path class="cls-1" d="M61.66,0H71V58.86H61.66Z"/><path class="cls-1" d="M89.23,43.45A9.49,9.49,0,0,0,92.5,50a10.24,10.24,0,0,0,6.77,2.33,11.16,11.16,0,0,0,5.88-1.44,16.32,16.32,0,0,0,4.16-3.62l6.7,5.06a18.94,18.94,0,0,1-7.32,5.76,21.62,21.62,0,0,1-8.49,1.72,22.31,22.31,0,0,1-7.94-1.41,18.91,18.91,0,0,1-6.46-4,18.64,18.64,0,0,1-4.32-6.19,19.65,19.65,0,0,1-1.6-8,19.66,19.66,0,0,1,1.6-8.06,18.64,18.64,0,0,1,4.32-6.19,18.91,18.91,0,0,1,6.46-4,22.31,22.31,0,0,1,7.94-1.41,18.16,18.16,0,0,1,7.13,1.37,15.45,15.45,0,0,1,5.53,3.93,18.25,18.25,0,0,1,3.58,6.34,27.17,27.17,0,0,1,1.28,8.69v2.57Zm19.15-7a8.79,8.79,0,0,0-2.57-6.5,9.61,9.61,0,0,0-6.93-2.38A9.1,9.1,0,0,0,92.22,30a10.77,10.77,0,0,0-3,6.46Z"/><path class="cls-1" d="M136.1,38.77,123.17,21.49h11.37L142,32.7l8.1-11.21h10.67L148,38.77l15,20.09H151.67l-9.73-13.39-9.81,13.39H121.07Z"/><path class="cls-1" d="M230,16.66a16.45,16.45,0,0,0-5.87-4.36,16.08,16.08,0,0,0-5.73-1.09,19.09,19.09,0,0,0-7.74,1.52,17.7,17.7,0,0,0-6,4.2,19,19,0,0,0-3.85,6.27,21.49,21.49,0,0,0-1.37,7.71,23.72,23.72,0,0,0,1.37,8.18,19.11,19.11,0,0,0,3.85,6.46,17.91,17.91,0,0,0,6,4.28,18.61,18.61,0,0,0,7.74,1.56,14.16,14.16,0,0,0,6.5-1.6,17.61,17.61,0,0,0,5.88-5.1l8.1,5.76a22.06,22.06,0,0,1-9.11,7.48,28.52,28.52,0,0,1-11.45,2.33A32.29,32.29,0,0,1,206.6,58.2a26.25,26.25,0,0,1-15.22-14.91,30.49,30.49,0,0,1-2.18-11.76,31.81,31.81,0,0,1,2.18-12,26.93,26.93,0,0,1,6-9.22A26.26,26.26,0,0,1,206.6,4.4a32.08,32.08,0,0,1,11.71-2.06,27,27,0,0,1,10.4,2,24.16,24.16,0,0,1,8.91,6.74Z"/><path class="cls-1" d="M268,53.72h-.23a12.08,12.08,0,0,1-5.14,4.64,16.14,16.14,0,0,1-6.85,1.44,18.51,18.51,0,0,1-5-.7A13.59,13.59,0,0,1,246.38,57a10.78,10.78,0,0,1-3.07-3.5,9.93,9.93,0,0,1-1.17-4.91,11.22,11.22,0,0,1,1.09-5.17,10.64,10.64,0,0,1,2.92-3.58,14.76,14.76,0,0,1,4.24-2.3,29.67,29.67,0,0,1,5-1.29,46,46,0,0,1,5.25-.54c1.76-.08,3.43-.12,5-.12H268v-1a6.1,6.1,0,0,0-2.41-5.26,10.27,10.27,0,0,0-6.16-1.75,14.43,14.43,0,0,0-5.52,1.05,13.77,13.77,0,0,0-4.44,2.85l-4.91-4.91A18.11,18.11,0,0,1,251.83,22a26.7,26.7,0,0,1,8.61-1.41,21.52,21.52,0,0,1,6.69.9,14.73,14.73,0,0,1,4.52,2.3A10.15,10.15,0,0,1,274.41,27a14.69,14.69,0,0,1,1.4,3.7,19.58,19.58,0,0,1,.51,3.62c.05,1.16.08,2.19.08,3.07V58.86H268Zm-.55-11.6H265.5c-1.3,0-2.75.05-4.36.16a22.63,22.63,0,0,0-4.56.74A10.48,10.48,0,0,0,253,44.73a3.75,3.75,0,0,0-1.48,3.15,4,4,0,0,0,.59,2.22,5.12,5.12,0,0,0,1.52,1.52,6.39,6.39,0,0,0,2.1.9,10.29,10.29,0,0,0,2.33.27q4.83,0,7.13-2.3a8.47,8.47,0,0,0,2.29-6.27ZM264.33,3.74h10.59L263.94,15h-7.32Z"/><path class="cls-1" d="M286.05,21.49h8.88v5.84h.15a12.57,12.57,0,0,1,4-4.71,12.12,12.12,0,0,1,7.44-2.07q8.79,0,11.68,6.93a13.22,13.22,0,0,1,5.06-5.25,14.73,14.73,0,0,1,7.24-1.68,14.42,14.42,0,0,1,6.31,1.25A10.94,10.94,0,0,1,341,25.23a14.16,14.16,0,0,1,2.3,5.1,26.56,26.56,0,0,1,.7,6.26V58.86h-9.34V37.68a17.76,17.76,0,0,0-.31-3.3,8,8,0,0,0-1.1-2.81,5.61,5.61,0,0,0-2.1-1.91,7.37,7.37,0,0,0-3.42-.7,7.75,7.75,0,0,0-3.7.82A7.28,7.28,0,0,0,321.52,32a8.86,8.86,0,0,0-1.4,3.12,14.54,14.54,0,0,0-.43,3.54V58.86h-9.35V36.59A9.33,9.33,0,0,0,308.86,31c-1-1.38-2.62-2.07-4.9-2.07a8.88,8.88,0,0,0-3.93.78,7.54,7.54,0,0,0-2.65,2.1,8.44,8.44,0,0,0-1.52,3,13.62,13.62,0,0,0-.47,3.58v20.4h-9.34Z"/><path class="cls-1" d="M377.54,53.72h-.24a12,12,0,0,1-5.14,4.64,16.1,16.1,0,0,1-6.85,1.44,18.49,18.49,0,0,1-5-.7A13.59,13.59,0,0,1,355.93,57a10.81,10.81,0,0,1-3.08-3.5,10,10,0,0,1-1.16-4.91,11.22,11.22,0,0,1,1.09-5.17,10.52,10.52,0,0,1,2.92-3.58,14.76,14.76,0,0,1,4.24-2.3,29.56,29.56,0,0,1,5-1.29,46.17,46.17,0,0,1,5.26-.54q2.64-.12,5-.12h2.34v-1a6.08,6.08,0,0,0-2.42-5.26A10.26,10.26,0,0,0,369,27.56a14.52,14.52,0,0,0-5.53,1.05A13.83,13.83,0,0,0,359,31.46l-4.91-4.91A18,18,0,0,1,361.38,22a26.68,26.68,0,0,1,8.6-1.41,21.59,21.59,0,0,1,6.7.9,14.73,14.73,0,0,1,4.52,2.3A10.15,10.15,0,0,1,384,27a14.69,14.69,0,0,1,1.4,3.7,20.47,20.47,0,0,1,.51,3.62c.05,1.16.08,2.19.08,3.07V58.86h-8.41ZM377,42.12H375c-1.29,0-2.75.05-4.36.16a22.64,22.64,0,0,0-4.55.74,10.48,10.48,0,0,0-3.62,1.71A3.72,3.72,0,0,0,361,47.88a3.94,3.94,0,0,0,.58,2.22,5.24,5.24,0,0,0,1.52,1.52,6.48,6.48,0,0,0,2.1.9,10.38,10.38,0,0,0,2.34.27q4.83,0,7.12-2.3a8.48,8.48,0,0,0,2.3-6.27Z"/><path class="cls-1" d="M396,21.49h9.34v5.92h.16a11.67,11.67,0,0,1,4.44-5.06,12.2,12.2,0,0,1,6.61-1.8,9.38,9.38,0,0,1,1.68.16c.54.1,1.1.23,1.67.39v9c-.78-.21-1.54-.37-2.3-.5a13,13,0,0,0-2.21-.2,10,10,0,0,0-5.26,1.21,9.54,9.54,0,0,0-3,2.76,9.35,9.35,0,0,0-1.4,3.12,12,12,0,0,0-.35,2.33v20H396Z"/><path class="cls-1" d="M449.63,53.72h-.23a12,12,0,0,1-5.14,4.64,16.14,16.14,0,0,1-6.85,1.44,18.44,18.44,0,0,1-5-.7A13.49,13.49,0,0,1,428,57a10.69,10.69,0,0,1-3.08-3.5,9.93,9.93,0,0,1-1.17-4.91,11.35,11.35,0,0,1,1.09-5.17,10.64,10.64,0,0,1,2.92-3.58,14.82,14.82,0,0,1,4.25-2.3,29.32,29.32,0,0,1,5-1.29,46.23,46.23,0,0,1,5.25-.54c1.77-.08,3.43-.12,5-.12h2.33v-1a6.07,6.07,0,0,0-2.41-5.26,10.26,10.26,0,0,0-6.15-1.75,14.44,14.44,0,0,0-5.53,1.05,14,14,0,0,0-4.44,2.85l-4.9-4.91A18,18,0,0,1,433.48,22a26.6,26.6,0,0,1,8.6-1.41,21.59,21.59,0,0,1,6.7.9,14.67,14.67,0,0,1,4.51,2.3A10.06,10.06,0,0,1,456.06,27a15.08,15.08,0,0,1,1.4,3.7,20.43,20.43,0,0,1,.5,3.62c.05,1.16.08,2.19.08,3.07V58.86h-8.41Zm-.54-11.6h-1.95c-1.3,0-2.75.05-4.36.16a22.41,22.41,0,0,0-4.55.74,10.39,10.39,0,0,0-3.62,1.71,3.72,3.72,0,0,0-1.48,3.15,3.94,3.94,0,0,0,.58,2.22,5.24,5.24,0,0,0,1.52,1.52,6.39,6.39,0,0,0,2.1.9,10.38,10.38,0,0,0,2.34.27c3.21,0,5.59-.77,7.12-2.3a8.48,8.48,0,0,0,2.3-6.27Z"/></g></g></svg>